<svg id="Layer_1" enable-background="new 0 0 511.177 511.177" height="512" viewBox="0 0 511.177 511.177" width="512" xmlns="http://www.w3.org/2000/svg"><g><g><path d="m511.177 255.588c0 78.592-37.22 148.491-94.994 193.032-41.122 31.703-92.657 34.774-148.597 34.774-134.532 0-234.712-93.275-234.712-227.807 0-19.168-6.665-37.818-2.479-55.71 25.194-107.683 121.827-187.88 237.191-187.88 134.531 0 243.591 109.06 243.591 243.591z" fill="#a0ebff"/></g><g><path d="m312.012 430.181c-134.552 0-234.716-105.796-243.218-227.132-1.571-22.415-33.278-25.049-38.398-3.17-4.187 17.891-6.401 36.541-6.401 55.708-.001 134.531 109.035 243.579 243.566 243.593 55.95.006 107.493-18.853 148.62-50.561 17.794-13.719 2.081-41.617-18.968-33.756-26.52 9.903-55.228 15.318-85.201 15.318z" fill="#75cef9"/></g><g><g><path d="m481.007 258.567c0 113.711-80.049 194.002-193.759 194.002s-186.109-81.004-186.109-194.715c0-70.634 15.786-132.961 69.989-170.046 33.056-22.617 73.043-35.845 116.119-35.845 56.855 0 108.328 23.045 145.587 60.304s48.173 89.445 48.173 146.3z" fill="#3a84ff"/></g><g><path d="m314.038 224.998v33.619c0 11.573-9.287 21.368-20.859 21.185-8.188-.13-14.808 6.731-14.279 15.004.463 7.251 7.16 13.156 14.426 13.156h12.266c4.734 0 8.354 3.888 8.448 8.621.092 4.586 3.838 8.276 8.447 8.276 15.313 0 27.726 12.413 27.726 27.726.004.458.009.911.013 1.36.268 29.906-27.848 51.984-56.828 44.594-16.71-4.261-32.677-10.585-47.596-18.744-18.64-10.194-30.431-29.562-30.971-50.801 0-.005 0-.008 0-.008-.314-4.973-4.551-8.764-9.506-8.551-5.114.221-9.556-3.421-9.879-8.529l-2.729-43.199c-.392-6.205-5.69-11.176-11.888-10.688-6.345.5-11.847-4.292-12.247-10.62l-.101-1.593c-.396-6.268 4.364-11.67 10.632-12.066l18.682-1.18c13.459-.85 24.427-11.123 26.154-24.498l5.105-39.53c.319-2.471 2.345-4.368 4.832-4.524l.456-.029c10.373-.652 18.649-9.352 18.23-19.737-.432-10.683-9.557-18.865-20.17-18.196-2.916.184-5.336-1.953-5.521-4.869-.803-12.652-11.709-22.26-24.362-21.46 0 0-84.482 28.68-93.869 156.972-4.593 62.772 4.868 126.278 50.997 162.755 6.59 5.211 13.506 10.028 20.713 14.414 56.905 34.635 126.258 38.822 185.457 14.348 7.832-3.238 17.543-20.766 25.075-25.051 0 0 28.892-6.677 41.924-19.705 30.744-30.734 51.815-71.141 58.251-116.267 6.81-47.748-177.029-76.656-177.029-62.185z" fill="#4073c8"/></g><g><path d="m294.647 239.746c15.587 17.514 26.803 38.065 37.603 58.746 10.354 19.828 22.317 39.602 28.983 61.075.873 2.813 4.376 16.831 4.754 17.515 1.099.748 1.686 1.562 1.908 2.11.213.243.417.465.613.668 10.197 7.133 24.372 11.679 36.312 15.003h28.001v-1.87c0-4.657 3.825-8.219 8.482-8.312 4.513-.09 8.143-3.776 8.143-8.311v-51.74c0-17.822 14.448-32.27 32.27-32.27 3.027 0 5.952-.426 8.73-1.205.067-.791 2.695-14.635 2.695-33.302 0-55.981-22.352-106.733-58.605-143.847-.001-.001-.001-.001-.002-.002h-66.014c-10.695 0-19.345 8.734-19.243 19.396.055 7.097-5.497 12.952-12.594 12.952h-2.742c-5.453 0-10.096 4.362-10.011 9.814.087 5.581-4.411 10.132-9.972 10.132-7.896 0-19.474 9.751-19.311 73.448z" fill="#9bd069"/></g><g><g><path d="m433.046 390.512c-11.516 6.472-25.691-2.17-25.413-15.377.111-5.271.386-11.125.024-18.052 0-10.633-8.582-19.261-19.198-19.335-10.71-.075-19.473-8.626-19.473-19.336v-45.26c0-15.313-12.413-27.726-27.726-27.726-4.609 0-8.355-3.69-8.447-8.277-.094-4.732-3.714-8.62-8.448-8.62h-12.265c-7.266 0-13.963-5.904-14.426-13.156-.528-8.273 6.091-15.134 14.279-15.004 11.572.183 20.859-9.612 20.859-21.185v-32.764c-4.949.551-8.964 4.675-8.885 9.747.087 5.581-4.411 10.132-9.972 10.132-14.471 0-26.202 11.731-26.202 26.202v33.619c0 11.573-9.287 21.368-20.859 21.185-8.188-.13-14.808 6.731-14.279 15.004.463 7.251 7.16 13.156 14.426 13.156h12.265c4.734 0 8.354 3.888 8.449 8.621.092 4.587 3.838 8.277 8.447 8.277 15.313 0 27.726 12.413 27.726 27.726v45.26c0 10.71 8.764 19.261 19.473 19.336 10.615.074 19.198 8.702 19.198 19.335v24.617c0 6.864 1.977 13.262 5.382 18.671 23.877-10.188 45.696-24.791 64.839-43.851.122-9.879-.298-10.901.422-13.054-.065.036-.13.073-.196.109z" fill="#69b76b"/></g></g><g><path d="m180.483 351.056c.203-.29.423-.58.677-.868 1.531-1.737 3.718-2.896 6.205-3.073 5.031-.357 8.943-4.475 8.625-9.509l-1.446-22.889c-.323-5.108-4.765-8.749-9.878-8.529-4.955.214-9.193-3.578-9.507-8.551l-2.729-43.197c-.392-6.205-5.69-11.176-11.888-10.688-6.345.5-11.847-4.291-12.247-10.62l-.101-1.593c-.396-6.268 4.364-11.67 10.632-12.066l18.682-1.18c13.459-.85 24.427-11.123 26.154-24.498l5.105-39.53c.319-2.471 2.345-4.368 4.832-4.524l.457-.029c10.373-.652 18.649-9.352 18.229-19.737-.432-10.683-9.558-18.865-20.17-18.196-2.916.184-5.336-1.953-5.521-4.869-.803-12.652-11.709-22.26-24.362-21.461l-8.357.528c-12.557 8.3-26.596 16.02-34.581 28.712-22.858 36.331-29.156 109.504-29.656 165.008-.354 39.327 31.517 71.359 70.845 71.359z" fill="#9bd069"/></g><g><g><path d="m182.432 348.995c-38.411-37.402-62.275-89.668-62.275-147.515 0-31.01 6.87-60.409 19.149-86.781-35.864 37.05-57.95 87.516-57.95 143.154 0 65.718 30.79 124.244 78.731 161.941l-2.45-38.784c-.318-5.035 3.506-9.375 8.541-9.693l4.465-.282c5.035-.318 8.859-4.658 8.541-9.693l-.287-4.541c-.198-3.142 1.218-6.014 3.535-7.806z" fill="#69b76b"/></g></g></g><g><g><path d="m167.457 389.688-10.856 1.898c-9.255 1.618-16.741-7.472-13.379-16.245l17.024-44.426 66.716-24.484z" fill="#3342aa"/></g><g><path d="m21.378 230.695-13.438 2.349c-7.33 1.281 26.041 52.357 26.041 52.357l51.627-9.026-56.722-43.824c-2.131-1.646-4.856-2.32-7.508-1.856z" fill="#4073c8"/></g><g><path d="m27.717 249.412-19.777-16.368c-7.33 1.281-10.465 10.065-5.603 15.698l31.643 36.659 51.627-9.026-22.889-17.684c-12.462 2.179-25.254-1.212-35.001-9.279z" fill="#3342aa"/></g><g><path d="m177.71 285.34-17.464 45.575 16.079-2.811c.035-.006.07-.012.105-.018 4.53-.762 7.907 4.133 5.725 8.175l-12.848 23.805-21.685 3.791-1.516 3.955 10.293-1.8c4.337-.758 7.636 3.82 5.545 7.694l-9.644 17.869c1.304.239 2.686.264 4.111.036l25.536-47.314c3.676-6.811 14.191-1.706 10.883 5.291-.283.598-.609 1.191-.981 1.775l-24.393 38.324 18.055-3.157c7.507-1.312 14.116-5.723 18.208-12.152l67.026-105.304z" fill="#2b3890"/></g><g><path d="m204.14 302.599-28.526 52.853-26.55 4.642-1.516 3.955 25.867-4.522-17.343 32.133c.176-.023.351-.043.529-.074l4.021-.703 46.717-86.557z" fill="#fff"/></g><g><path d="m418.617 259.374c-16.597-29.049-49.628-44.571-82.584-38.809l-278.943 48.766s29.688 52.358 50.076 48.794l303.343-41.497c7.949-1.391 12.111-10.247 8.108-17.254z" fill="#fff"/></g><g><path d="m164.986 306.677c-27.25 4.764-55.293-1.012-78.442-16.157l-18.031-11.796c-3.897-2.549-5.882-6.383-6.209-10.304l-36.389 6.362c-12.342 2.158-15.669 18.31-5.184 25.17l18.031 11.796c23.149 15.145 51.192 20.921 78.442 16.157l293.306-51.277c6.932-1.212 10.98-8.101 9.249-14.49z" fill="#d0fbfd"/></g><g><path d="m149.747 192.198-28.912 5.055c-9.255 1.618 53.66 90.182 53.66 90.182 1.392 1.613 3.529 2.375 5.628 2.009l76.128-13.309c5.185-.907 6.825-7.54 2.66-10.759l-87.913-67.923c-6.031-4.66-13.744-6.567-21.251-5.255z" fill="#4073c8"/></g><g><path d="m394.424 233.187-43.291 1.555 1.095 6.266c2.324 13.293 14.984 22.185 28.277 19.861l35.219-6.157c-5.748-8.623-13.015-15.877-21.3-21.525z" fill="#d0fbfd"/></g><g><path d="m337.459 266.144-10.165 1.777c-2.768.484-5.403-1.368-5.887-4.135l-1.692-9.679c-.484-2.768 1.367-5.403 4.135-5.887l10.165-1.777c2.768-.484 5.403 1.367 5.887 4.135l1.692 9.679c.484 2.767-1.368 5.403-4.135 5.887z" fill="#d0fbfd"/></g><g><path d="m308.501 271.206-10.165 1.777c-2.768.484-5.403-1.367-5.887-4.135l-1.692-9.679c-.484-2.768 1.367-5.403 4.135-5.887l10.165-1.777c2.768-.484 5.403 1.367 5.887 4.135l1.692 9.679c.484 2.768-1.368 5.404-4.135 5.887z" fill="#d0fbfd"/></g><g><path d="m279.543 276.269-10.165 1.777c-2.768.484-5.403-1.367-5.887-4.135l-1.692-9.679c-.484-2.768 1.367-5.403 4.135-5.887l10.165-1.777c2.768-.484 5.403 1.367 5.887 4.135l1.692 9.679c.483 2.767-1.368 5.403-4.135 5.887z" fill="#d0fbfd"/></g><g><path d="m163.71 296.519-10.165 1.777c-2.768.484-5.403-1.367-5.887-4.135l-1.692-9.679c-.484-2.768 1.368-5.403 4.135-5.887l10.165-1.777c2.768-.484 5.403 1.367 5.887 4.135l1.692 9.679c.484 2.768-1.367 5.404-4.135 5.887z" fill="#d0fbfd"/></g><g><path d="m134.752 301.582-10.165 1.777c-2.768.484-5.403-1.368-5.887-4.135l-1.692-9.679c-.484-2.768 1.368-5.403 4.135-5.887l10.165-1.777c2.768-.484 5.403 1.367 5.887 4.135l1.692 9.679c.484 2.767-1.367 5.403-4.135 5.887z" fill="#d0fbfd"/></g><g><path d="m105.794 306.645-10.165 1.777c-2.768.484-5.403-1.367-5.887-4.135l-1.692-9.679c-.484-2.768 1.368-5.403 4.135-5.887l10.165-1.777c2.768-.484 5.403 1.367 5.887 4.135l1.692 9.679c.484 2.767-1.367 5.403-4.135 5.887z" fill="#d0fbfd"/></g><g><path d="m386.678 228.528-35.546 6.214c2.324 13.293 14.984 22.185 28.277 19.861l32.126-5.617c-6.878-8.552-15.373-15.466-24.857-20.458z" fill="#4073c8"/></g><g><path d="m336.363 259.878-10.165 1.777c-2.768.484-5.403-1.367-5.887-4.135l-1.692-9.679c-.484-2.768 1.368-5.403 4.135-5.887l10.165-1.777c2.768-.484 5.403 1.368 5.887 4.135l1.692 9.679c.484 2.767-1.367 5.403-4.135 5.887z" fill="#4073c8"/></g><g><path d="m307.405 264.941-10.165 1.777c-2.768.484-5.403-1.368-5.887-4.135l-1.692-9.679c-.484-2.768 1.367-5.403 4.135-5.887l10.165-1.777c2.768-.484 5.403 1.367 5.887 4.135l1.692 9.679c.484 2.767-1.367 5.403-4.135 5.887z" fill="#4073c8"/></g><g><path d="m278.447 270.003-10.165 1.777c-2.768.484-5.403-1.367-5.887-4.135l-1.692-9.679c-.484-2.768 1.368-5.403 4.135-5.887l10.165-1.777c2.768-.484 5.403 1.367 5.887 4.135l1.692 9.679c.484 2.768-1.367 5.404-4.135 5.887z" fill="#4073c8"/></g><g><path d="m162.615 290.254-10.165 1.777c-2.768.484-5.403-1.367-5.887-4.135l-1.692-9.679c-.484-2.768 1.368-5.403 4.135-5.887l10.165-1.777c2.768-.484 5.403 1.368 5.887 4.135l1.692 9.679c.484 2.767-1.368 5.403-4.135 5.887z" fill="#4073c8"/></g><g><path d="m133.657 295.316-10.165 1.777c-2.768.484-5.403-1.367-5.887-4.135l-1.692-9.679c-.484-2.768 1.368-5.403 4.135-5.887l10.165-1.777c2.768-.484 5.403 1.367 5.887 4.135l1.692 9.679c.484 2.768-1.368 5.404-4.135 5.887z" fill="#4073c8"/></g><g><path d="m258.911 265.376-2.105-1.627-40.901 7.151c-5.68.993-11.467-1.049-15.265-5.387-8.483-9.687-3.105-24.924 9.578-27.142l11.205-1.959-3.895-3.009-29.883 5.224c-5.68.993-11.467-1.049-15.265-5.387l-34.172-39.024-4.189.732 63.047 72c2.413 2.756.883 7.09-2.725 7.721-2.099.367-4.236-.396-5.628-2.009l-60.735-70.36c-1.52-1.761-2.419-3.766-2.774-5.811l-4.369.764c-9.255 1.618-13.213 12.709-7.074 19.821l60.734 70.361c1.392 1.613 3.529 2.375 5.628 2.009l31.776-5.555 4.19-.732 40.163-7.021c5.184-.908 6.824-7.542 2.659-10.76z" fill="#3342aa"/></g><g><path d="m104.699 300.379-10.165 1.777c-2.768.484-5.403-1.368-5.887-4.135l-1.692-9.679c-.484-2.768 1.368-5.403 4.135-5.887l10.165-1.777c2.768-.484 5.403 1.367 5.887 4.135l1.692 9.679c.484 2.767-1.368 5.403-4.135 5.887z" fill="#4073c8"/></g><g><path d="m134.287 194.901-4.189.732 77.88 88.941 4.189-.733-37.539-42.87 42.972-7.513-3.894-3.009-41.88 7.322z" fill="#fff"/></g></g></g></svg>